<svg xmlns="http://www.w3.org/2000/svg" enable-background="new 0 0 64 64" viewBox="0 0 64 64"><path fill="#2c2e63" d="M53.7,57.9H51V11.6h1.8c0.5,0,1-0.4,1-1V1c0-0.5-0.4-1-1-1H11.2c-0.5,0-1,0.4-1,1v9.7c0,0.5,0.4,1,1,1H13v46.2
		h-2.8c-0.5,0-1,0.4-1,1V63c0,0.5,0.4,1,1,1h43.5c0.5,0,1-0.4,1-1v-4.2C54.7,58.3,54.3,57.9,53.7,57.9z M12.2,9.7V1.9h39.7v7.7H12.2
		z M37.5,43.6H26.5c-0.5,0-1,0.4-1,1v13.3H15V11.6H49v46.2H38.5V44.6C38.5,44,38.1,43.6,37.5,43.6z M36.6,45.5v12.3h-9.1V45.5H36.6z
		 M52.8,62.1H11.2v-2.3h41.5V62.1z"/><rect width="9.1" height="12.3" x="27.4" y="45.5" fill="#edeced"/><rect width="41.5" height="2.3" x="11.2" y="59.8" fill="#9fc2d7"/><path fill="#ffdb7c" d="M15,11.6v46.2h10.5V44.6c0-0.5,0.4-1,1-1h11.1c0.5,0,1,0.4,1,1v13.3H49V11.6H15z M25.3,40.3c0,0.5-0.4,1-1,1
		h-5.4c-0.5,0-1-0.4-1-1v-5.8c0-0.5,0.4-1,1-1h5.4c0.5,0,1,0.4,1,1V40.3z M25.3,30.6c0,0.5-0.4,1-1,1h-5.4c-0.5,0-1-0.4-1-1v-5.8
		c0-0.5,0.4-1,1-1h5.4c0.5,0,1,0.4,1,1V30.6z M25.3,20.9c0,0.5-0.4,1-1,1h-5.4c-0.5,0-1-0.4-1-1V15c0-0.5,0.4-1,1-1h5.4
		c0.5,0,1,0.4,1,1V20.9z M35.7,40.3c0,0.5-0.4,1-1,1h-5.4c-0.5,0-1-0.4-1-1v-5.8c0-0.5,0.4-1,1-1h5.4c0.5,0,1,0.4,1,1V40.3z
		 M35.7,30.6c0,0.5-0.4,1-1,1h-5.4c-0.5,0-1-0.4-1-1v-5.8c0-0.5,0.4-1,1-1h5.4c0.5,0,1,0.4,1,1V30.6z M35.7,20.9c0,0.5-0.4,1-1,1
		h-5.4c-0.5,0-1-0.4-1-1V15c0-0.5,0.4-1,1-1h5.4c0.5,0,1,0.4,1,1V20.9z M46.1,40.3c0,0.5-0.4,1-1,1h-5.4c-0.5,0-1-0.4-1-1v-5.8
		c0-0.5,0.4-1,1-1h5.4c0.5,0,1,0.4,1,1V40.3z M46.1,30.6c0,0.5-0.4,1-1,1h-5.4c-0.5,0-1-0.4-1-1v-5.8c0-0.5,0.4-1,1-1h5.4
		c0.5,0,1,0.4,1,1V30.6z M46.1,20.9c0,0.5-0.4,1-1,1h-5.4c-0.5,0-1-0.4-1-1V15c0-0.5,0.4-1,1-1h5.4c0.5,0,1,0.4,1,1V20.9z"/><path fill="#b5d9e5" d="M12.2,1.9v7.7h39.7V1.9H12.2z M23.8,8.6h-1.2V6.2h-2.2v2.4h-1.2V3h1.2v2.1h2.2V3h1.2V8.6z M27.5,8.6
		c-1.7,0-2.6-1.3-2.6-2.8c0-1.6,1-2.8,2.7-2.8c1.6,0,2.7,1.1,2.7,2.8C30.2,7.3,29.3,8.6,27.5,8.6z M35.1,4h-1.7v4.5h-1.2V4h-1.7V3
		h4.6V4z M39.8,8.6h-3.9V3h3.9v1h-2.8v1.2h2.6v1h-2.6v1.4H40L39.8,8.6z M44.6,8.6h-3.8V3H42v4.5h2.8L44.6,8.6z"/><rect width="9.1" height="2" x="27.4" y="55.9" fill="#d5d6d5"/><rect width="10.5" height="2" x="15" y="55.9" fill="#ecc25e"/><polygon fill="#ecc25e" points="49 11.6 49 57.9 38.5 57.9 38.5 55.9 47 55.9 47 11.6"/><rect width="2" height="7.7" x="49.8" y="1.9" fill="#9fc2d7"/><polygon fill="#2c2e63" points="23.8 3 23.8 8.6 22.6 8.6 22.6 6.2 20.4 6.2 20.4 8.6 19.2 8.6 19.2 3 20.4 3 20.4 5.2 22.6 5.2 22.6 3"/><path fill="#2c2e63" d="M27.6,3c-1.7,0-2.7,1.2-2.7,2.8c0,1.6,0.9,2.8,2.6,2.8c1.8,0,2.7-1.3,2.7-2.9C30.2,4.1,29.2,3,27.6,3z
		 M27.6,7.7c-1,0-1.5-0.8-1.5-1.9c0-1.1,0.4-1.8,1.4-1.8c1,0,1.5,0.8,1.5,1.9C29,6.8,28.6,7.7,27.6,7.7z"/><path fill="#b5d9e5" d="M29,5.8c0,1-0.4,1.9-1.4,1.9c-1,0-1.5-0.8-1.5-1.9c0-1.1,0.4-1.8,1.4-1.8C28.6,3.9,29,4.8,29,5.8z"/><polygon fill="#2c2e63" points="35.1 3 35.1 4 33.5 4 33.5 8.6 32.3 8.6 32.3 4 30.6 4 30.6 3"/><polygon fill="#2c2e63" points="40 7.6 39.8 8.6 35.9 8.6 35.9 3 39.8 3 39.8 4 37.1 4 37.1 5.2 39.7 5.2 39.7 6.2 37.1 6.2 37.1 7.6"/><polygon fill="#2c2e63" points="44.8 7.6 44.6 8.6 40.8 8.6 40.8 3 42 3 42 7.6"/><path fill="#2c2e63" d="M24.3,14.1h-5.4c-0.5,0-1,0.4-1,1v5.8c0,0.5,0.4,1,1,1h5.4c0.5,0,1-0.4,1-1V15C25.3,14.5,24.8,14.1,24.3,14.1z
		 M23.3,19.9h-3.5V16h3.5V19.9z"/><rect width="3.5" height="3.9" x="19.8" y="16" fill="#edeced"/><path fill="#2c2e63" d="M34.7,14.1h-5.4c-0.5,0-1,0.4-1,1v5.8c0,0.5,0.4,1,1,1h5.4c0.5,0,1-0.4,1-1V15C35.7,14.5,35.3,14.1,34.7,14.1z
		 M33.7,19.9h-3.5V16h3.5V19.9z"/><rect width="3.5" height="3.9" x="30.2" y="16" fill="#edeced"/><path fill="#2c2e63" d="M45.1,14.1h-5.4c-0.5,0-1,0.4-1,1v5.8c0,0.5,0.4,1,1,1h5.4c0.5,0,1-0.4,1-1V15C46.1,14.5,45.7,14.1,45.1,14.1z
		 M44.2,19.9h-3.5V16h3.5V19.9z"/><rect width="3.5" height="3.9" x="40.7" y="16" fill="#edeced"/><path fill="#2c2e63" d="M24.3,23.8h-5.4c-0.5,0-1,0.4-1,1v5.8c0,0.5,0.4,1,1,1h5.4c0.5,0,1-0.4,1-1v-5.8
		C25.3,24.2,24.8,23.8,24.3,23.8z M23.3,29.6h-3.5v-3.9h3.5V29.6z"/><rect width="3.5" height="3.9" x="19.8" y="25.7" fill="#edeced"/><path fill="#2c2e63" d="M34.7,23.8h-5.4c-0.5,0-1,0.4-1,1v5.8c0,0.5,0.4,1,1,1h5.4c0.5,0,1-0.4,1-1v-5.8
		C35.7,24.2,35.3,23.8,34.7,23.8z M33.7,29.6h-3.5v-3.9h3.5V29.6z"/><rect width="3.5" height="3.9" x="30.2" y="25.7" fill="#edeced"/><path fill="#2c2e63" d="M45.1,23.8h-5.4c-0.5,0-1,0.4-1,1v5.8c0,0.5,0.4,1,1,1h5.4c0.5,0,1-0.4,1-1v-5.8
		C46.1,24.2,45.7,23.8,45.1,23.8z M44.2,29.6h-3.5v-3.9h3.5V29.6z"/><rect width="3.5" height="3.9" x="40.7" y="25.7" fill="#edeced"/><path fill="#2c2e63" d="M24.3,33.5h-5.4c-0.5,0-1,0.4-1,1v5.8c0,0.5,0.4,1,1,1h5.4c0.5,0,1-0.4,1-1v-5.8C25.3,34,24.8,33.5,24.3,33.5z
		 M23.3,39.3h-3.5v-3.9h3.5V39.3z"/><rect width="3.5" height="3.9" x="19.8" y="35.5" fill="#edeced"/><path fill="#2c2e63" d="M34.7,33.5h-5.4c-0.5,0-1,0.4-1,1v5.8c0,0.5,0.4,1,1,1h5.4c0.5,0,1-0.4,1-1v-5.8C35.7,34,35.3,33.5,34.7,33.5z
		 M33.7,39.3h-3.5v-3.9h3.5V39.3z"/><rect width="3.5" height="3.9" x="30.2" y="35.5" fill="#edeced"/><path fill="#2c2e63" d="M45.1,33.5h-5.4c-0.5,0-1,0.4-1,1v5.8c0,0.5,0.4,1,1,1h5.4c0.5,0,1-0.4,1-1v-5.8C46.1,34,45.7,33.5,45.1,33.5z
		 M44.2,39.3h-3.5v-3.9h3.5V39.3z"/></svg>