<svg xmlns="http://www.w3.org/2000/svg" enable-background="new 0 0 64 64" viewBox="0 0 64 64"><path fill="#1379c2" d="M3.3,54.4c-0.4,0-0.9-0.1-1.3-0.3C1,53.4,0.7,52,1.3,51l24.6-40.2c0.2-0.3,0.4-0.6,0.8-0.8
		c1.1-0.6,2.4-0.3,3.1,0.7l7.8,12.8L19.9,54.4L3.3,54.4L3.3,54.4z"/><path fill="#ccc" d="M16.1,26.7l9.8-16c0.2-0.3,0.4-0.6,0.8-0.8c1.1-0.6,2.4-0.3,3.1,0.7l7.8,12.8l-6.7,11.7
		c-0.6-0.3-1.2-0.7-1.6-1.2C25,30.3,20.5,28,16.1,26.7L16.1,26.7z"/><path d="M25,10.2c1.2-2.1,4.3-2.1,5.5,0l8.1,13.3L38.3,24l-6.7,11.7l-0.5,0.8L20.5,55.3l-17.1,0c-2.6,0.1-4.2-2.7-2.9-4.9
		l14.8-24.2L25,10.2L25,10.2z M29.5,35.6l-0.1-0.1c-4.8-3.4-6.9-5.7-12.9-7.6L2.1,51.5c-0.5,0.9,0.1,2,1.2,1.9h0.1l16.1,0L29.5,35.6
		L29.5,35.6z M26.7,11.2l-9.1,15c5.9,1.9,8.1,4.3,12.9,7.7l5.9-10.4l-7.5-12.3C28.4,10.4,27.1,10.4,26.7,11.2L26.7,11.2L26.7,11.2z"/><path fill="#358dcc" fill-rule="evenodd" d="M37.5,23.5L19.9,54.4l40.8,0c1.2,0,2.2-1,2.2-2.2c0-0.5-0.2-0.9-0.4-1.3l0,0c-6.8-9.6-13.6-19.3-20.3-28.9
		c-0.7-1-2.1-1.3-3.1-0.5c-0.2,0.2-0.4,0.3-0.5,0.5L37.5,23.5L37.5,23.5z" clip-rule="evenodd"/><path fill="#e6e6e6" fill-rule="evenodd" d="M37.5,23.5l-5.1,8.9c3.5,0.6,7,2,10.4,5c2.5,2.2,8.9,2.8,12.1,2.4l-12.6-18c-0.7-1-2.1-1.3-3.1-0.5
		c-0.2,0.2-0.4,0.3-0.5,0.5L37.5,23.5L37.5,23.5z" clip-rule="evenodd"/><path d="M32.9,33.5L21.6,53.4l39.2,0v0c1.9,0,1.2-1.8,0.5-2.8l0,0l-6.9-9.8c-4.2,0.2-9.5-0.1-12.3-2.6
		C39.5,35.8,36.4,34.2,32.9,33.5L32.9,33.5z M40.7,22c-0.3-0.1-0.7,0-1,0.2c-0.1,0-0.1,0.1-0.2,0.1l0,0c0,0-0.1,0.1-0.1,0.2L38.3,24
		l-4.4,7.7c3.6,0.8,6.8,2.5,9.5,5c2,1.8,7,2.3,9.7,2.3L40.7,22L40.7,22z M19.1,53.9l11.8-20.7l0.7-1.2l5.1-8.9l0-0.1l1.1-1.6
		c0.1-0.1,0.2-0.3,0.4-0.4l0,0c0.1-0.1,0.3-0.2,0.4-0.4c0.7-0.5,1.6-0.7,2.4-0.5c0.8,0.1,1.6,0.6,2.1,1.3l12.6,18l0.9,1.3l6.8,9.6
		c1.5,2.1-0.1,5.1-2.6,5.1v0l-42.5,0L19.1,53.9L19.1,53.9z"/></svg>