<svg xmlns="http://www.w3.org/2000/svg" enable-background="new 0 0 64 64" viewBox="0 0 64 64"><path fill="#2a2f63" d="M63.86,16.25c0-0.01,0-0.02-0.01-0.03L56.94,2.28c-0.25-0.49-0.74-0.79-1.29-0.79H8.79
		c-0.53,0-1.02,0.29-1.27,0.76L0.17,16.19c-0.01,0.01-0.01,0.03-0.02,0.04c-0.04,0.08-0.07,0.17-0.1,0.26
		c0,0.02-0.01,0.04-0.01,0.06C0.01,16.64,0,16.75,0,16.85v5.93c0,3.11,1.59,5.87,4.01,7.48v30.82c0,0.79,0.64,1.43,1.43,1.43h53.12
		c0.79,0,1.43-0.64,1.43-1.43V30.3c2.42-1.61,4.01-4.35,4.01-7.46v-5.98C64,16.64,63.95,16.44,63.86,16.25z M54.76,4.34l5.5,11.08
		H48.55L45.84,4.34H54.76z M33.49,4.34h9.4l2.71,11.08H33.49V4.34z M33.49,18.28H46.1v4.41c0,3.43-2.79,6.23-6.22,6.23h-0.17
		c-3.43,0-6.22-2.8-6.22-6.23V18.28z M20.8,4.34h9.82v11.08H18.36L20.8,4.34z M18.01,18.28h12.61v4.41c0,3.43-2.79,6.23-6.22,6.23
		h-0.17c-3.43,0-6.22-2.8-6.22-6.23V18.28z M9.65,4.34h8.22l-2.44,11.08H3.81L9.65,4.34z M2.87,22.78v-4.5h12.28v4.5
		c0,3.38-2.76,6.14-6.14,6.14C5.62,28.93,2.87,26.16,2.87,22.78z M23.02,59.65h-9.6V44.49h9.6V59.65z M25,41.63H11.44v-1.78H25
		V41.63z M57.13,59.65H25.88V44.49h0.55c0.79,0,1.43-0.64,1.43-1.43v-4.64c0-0.79-0.64-1.43-1.43-1.43H10.01
		c-0.79,0-1.43,0.64-1.43,1.43v4.64c0,0.79,0.64,1.43,1.43,1.43h0.55v15.17H6.88V31.52c0.68,0.16,1.39,0.26,2.13,0.26
		c3.19,0,5.99-1.67,7.59-4.18c1.62,2.51,4.43,4.18,7.63,4.18h0.17c3.22,0,6.04-1.68,7.65-4.21c1.62,2.53,4.44,4.21,7.66,4.21h0.17
		c3.19,0,6-1.66,7.62-4.16c1.59,2.5,4.38,4.16,7.55,4.16c0.72,0,1.41-0.09,2.08-0.25V59.65z M61.13,22.83
		c0,3.36-2.73,6.09-6.08,6.09c-3.36,0-6.09-2.73-6.09-6.09v-4.55h12.17V22.83z"/><rect width="13.56" height="1.78" x="11.44" y="39.85" fill="#ffdb7c"/><rect width="9.6" height="15.17" x="13.42" y="44.49" fill="#ffdb7c"/><path fill="#f16e61" d="M55.05,31.78c-3.17,0-5.96-1.66-7.55-4.16c-1.62,2.5-4.43,4.16-7.62,4.16h-0.17c-3.22,0-6.04-1.68-7.66-4.21
		c-1.61,2.53-4.43,4.21-7.65,4.21h-0.17c-3.2,0-6.01-1.67-7.63-4.18c-1.6,2.51-4.4,4.18-7.59,4.18c-0.74,0-1.45-0.1-2.13-0.26v28.13
		h3.68V44.49h-0.55c-0.79,0-1.43-0.64-1.43-1.43v-4.64c0-0.79,0.64-1.43,1.43-1.43h16.42c0.79,0,1.43,0.64,1.43,1.43v4.64
		c0,0.79-0.64,1.43-1.43,1.43h-0.55v15.17h31.25V31.53C56.46,31.69,55.77,31.78,55.05,31.78z M55.17,43.17
		c0,0.79-0.64,1.43-1.43,1.43h-0.16v12.63c0,0.79-0.64,1.43-1.43,1.43H34.92c-0.8,0-1.44-0.64-1.44-1.43V44.6h-0.15
		c-0.79,0-1.43-0.64-1.43-1.43V38.6c0-0.79,0.64-1.43,1.43-1.43h20.41c0.79,0,1.43,0.64,1.43,1.43V43.17z"/><path fill="#edeced" d="M15.15,18.28v4.5c0,3.38-2.76,6.14-6.14,6.14c-3.39,0-6.14-2.76-6.14-6.14v-4.5H15.15z"/><polygon fill="#edeced" points="17.87 4.34 15.43 15.43 3.81 15.43 9.65 4.34"/><polygon fill="#edeced" points="30.62 4.34 30.62 15.43 18.36 15.43 20.8 4.34"/><path fill="#edeced" d="M30.62 18.28v4.41c0 3.43-2.79 6.23-6.22 6.23h-.17c-3.43 0-6.22-2.8-6.22-6.23v-4.41H30.62zM46.1 18.28v4.41c0 3.43-2.79 6.23-6.22 6.23h-.17c-3.43 0-6.22-2.8-6.22-6.23v-4.41H46.1z"/><polygon fill="#edeced" points="45.6 15.43 33.49 15.43 33.49 4.34 42.89 4.34"/><polygon fill="#edeced" points="60.26 15.43 48.55 15.43 45.84 4.34 54.76 4.34"/><path fill="#edeced" d="M61.13,18.28v4.55c0,3.36-2.73,6.09-6.08,6.09c-3.36,0-6.09-2.73-6.09-6.09v-4.55H61.13z"/><path fill="#2a2f63" d="M53.74,37.17H33.33c-0.79,0-1.43,0.64-1.43,1.43v4.57c0,0.79,0.64,1.43,1.43,1.43h0.15v12.63
		c0,0.79,0.64,1.43,1.44,1.43h17.23c0.79,0,1.43-0.64,1.43-1.43V44.6h0.16c0.79,0,1.43-0.64,1.43-1.43V38.6
		C55.17,37.81,54.53,37.17,53.74,37.17z M50.72,55.78H36.35V44.6h14.37V55.78z M52.3,41.72H34.76v-1.7H52.3V41.72z"/><rect width="17.54" height="1.7" x="34.76" y="40.03" fill="#ffdb7c"/><rect width="14.37" height="11.19" x="36.35" y="44.6" fill="#ffdb7c"/></svg>